<?xml version="1.0" encoding="UTF-8" standalone="no"?>
<!DOCTYPE svg PUBLIC "-//W3C//DTD SVG 1.1//EN" "http://www.w3.org/Graphics/SVG/1.1/DTD/svg11.dtd">
<svg xmlns="http://www.w3.org/2000/svg" version="1.1" viewBox="0.00 0.00 180.00 180.00">
<g stroke-width="2.00" fill="none" stroke-linecap="butt">
<path stroke="#868686" vector-effect="non-scaling-stroke" d="
  M 167.39 91.08
  A 76.92 76.92 0.0 0 0 90.47 14.16
  A 76.92 76.92 0.0 0 0 13.55 91.08
  A 76.92 76.92 0.0 0 0 90.47 168.00
  A 76.92 76.92 0.0 0 0 167.39 91.08"
/>
<path stroke="#868686" vector-effect="non-scaling-stroke" d="
  M 70.44 70.29
  Q 70.39 68.04 71.57 69.96
  L 109.07 130.96
  Q 109.39 131.49 110.00 131.49
  L 121.76 131.48
  Q 122.25 131.48 122.25 130.99
  L 122.25 51.25
  Q 122.25 50.75 121.75 50.75
  L 110.52 50.74
  Q 110.01 50.74 110.01 51.25
  C 109.91 70.47 109.51 89.89 110.60 109.09
  Q 110.72 111.29 109.57 109.42
  L 73.64 51.10
  Q 73.42 50.74 73.00 50.74
  L 59.25 50.74
  Q 58.74 50.74 58.74 51.25
  L 58.74 130.99
  Q 58.74 131.49 59.24 131.49
  L 70.47 131.48
  A 0.55 0.55 0.0 0 0 71.02 130.93
  Q 70.99 111.48 71.03 87.15
  C 71.04 81.52 70.56 76.33 70.44 70.29"
/>
</g>
<path fill="#ffffff" d="
  M 0.00 0.00
  L 180.00 0.00
  L 180.00 180.00
  L 0.00 180.00
  L 0.00 0.00
  Z
  M 167.39 91.08
  A 76.92 76.92 0.0 0 0 90.47 14.16
  A 76.92 76.92 0.0 0 0 13.55 91.08
  A 76.92 76.92 0.0 0 0 90.47 168.00
  A 76.92 76.92 0.0 0 0 167.39 91.08
  Z"
/>
<path fill="#0c0c0c" d="
  M 167.39 91.08
  A 76.92 76.92 0.0 0 1 90.47 168.00
  A 76.92 76.92 0.0 0 1 13.55 91.08
  A 76.92 76.92 0.0 0 1 90.47 14.16
  A 76.92 76.92 0.0 0 1 167.39 91.08
  Z
  M 70.44 70.29
  Q 70.39 68.04 71.57 69.96
  L 109.07 130.96
  Q 109.39 131.49 110.00 131.49
  L 121.76 131.48
  Q 122.25 131.48 122.25 130.99
  L 122.25 51.25
  Q 122.25 50.75 121.75 50.75
  L 110.52 50.74
  Q 110.01 50.74 110.01 51.25
  C 109.91 70.47 109.51 89.89 110.60 109.09
  Q 110.72 111.29 109.57 109.42
  L 73.64 51.10
  Q 73.42 50.74 73.00 50.74
  L 59.25 50.74
  Q 58.74 50.74 58.74 51.25
  L 58.74 130.99
  Q 58.74 131.49 59.24 131.49
  L 70.47 131.48
  A 0.55 0.55 0.0 0 0 71.02 130.93
  Q 70.99 111.48 71.03 87.15
  C 71.04 81.52 70.56 76.33 70.44 70.29
  Z"
/>
<path fill="#ffffff" d="
  M 70.44 70.29
  C 70.56 76.33 71.04 81.52 71.03 87.15
  Q 70.99 111.48 71.02 130.93
  A 0.55 0.55 0.0 0 1 70.47 131.48
  L 59.24 131.49
  Q 58.74 131.49 58.74 130.99
  L 58.74 51.25
  Q 58.74 50.74 59.25 50.74
  L 73.00 50.74
  Q 73.42 50.74 73.64 51.10
  L 109.57 109.42
  Q 110.72 111.29 110.60 109.09
  C 109.51 89.89 109.91 70.47 110.01 51.25
  Q 110.01 50.74 110.52 50.74
  L 121.75 50.75
  Q 122.25 50.75 122.25 51.25
  L 122.25 130.99
  Q 122.25 131.48 121.76 131.48
  L 110.00 131.49
  Q 109.39 131.49 109.07 130.96
  L 71.57 69.96
  Q 70.39 68.04 70.44 70.29
  Z"
/>
</svg>
